# xmcd
#
# Track frame offsets:
#	150
#	15875
#	26019
#	48522
#	65502
#	86059
#	102379
#
# Disc length: 1610 seconds
#
# Revision: 0
# Processed by: cddbd v1.5.1PL0 Copyright (c) Steve Scherf et al.
# Submitted via: dBpowerAMP V4.0
#
DISCID=51064807
DTITLE=Little Buddy - Tight
DYEAR=2003
DGENRE=Blues
TTITLE0=I'm Not Afraid
TTITLE1=Give It Up
TTITLE2=Peach Pie Blues
TTITLE3=I Whisper Love To Her
TTITLE4=Hold It Right There
TTITLE5=Hip Hug Her
TTITLE6=Nino
EXTD=
EXTT0=
EXTT1=
EXTT2=
EXTT3=
EXTT4=
EXTT5=
EXTT6=
PLAYORDER=
